<?xml version="1.0" encoding="UTF-8"?>
<svg width="100pt" height="100pt" version="1.1" viewBox="0 0 100 100" xmlns="http://www.w3.org/2000/svg">
 <g>
  <path d="m37.016 7.1914-7.8711 0.92188-0.32812-0.40234-11.168 1.3594-0.26172 0.46094-13.27 1.5703v19.23l1.9102 0.53125 0.30078 0.078125 0.16016 0.050782-0.042969 34.602 47.852 25.691 1.8086 0.96875 0.21875 0.12109h0.011719v-0.011719l38.059-9.4688-0.019531-44.949 2.1914-0.35156v-22.102l0.011719-1.7617zm17.27 81.672-45.531-24.309 0.003906-32.934 45.531 12.68zm0.89062-46.77-48.277-13.121-0.57031-0.16016v-15.191l48.852 8.0586zm0.82031-22.383-48.531-7.5 11.871-1.4102 0.12109-0.39844 8.8984-1.0195 0.35156 0.30859 8.4414-1.0781 52.039 6.0703zm33.586-3.1719-0.94531 1.375-5.7422 0.82813-1-1.0625zm-19.48 2.8945-0.45312 0.63281-0.56641 0.78906-5.9805 0.88672-0.97656-1.1172zm-13.766 70.758-0.011719-45.309h0.011719l1.1914 0.35156 34.559-6.3281 0.011718 42.398zm37.949-54.27-36.703 6.5469-0.007812-20.164 3.6211-0.48047 0.91797 1.1562 7.9922-1.1875 0.84375-1.4805 10.004-1.5742 1.0234 1.2969 7.6094-1.1367 0.76953-1.543 3.9727-0.54297z"/>
  <path d="m85.066 61.621c-0.35938 0.23047-0.80859 0.82812-16.352 3.9102-0.82812-0.28125-1.0781-1.0195-1.3086-2.0586 8.5-1.6719 14.98-3.1016 16.129-3.5508 0.80078-0.94922 1.0391-2.8398 0.71094-5.6289l2.25-0.37891c0.26953 2.3398-0.14844 6.8477-1.4297 7.707z"/>
  <path d="m86.438 52.121v1.1602l-19.949 4.0625 0.007813-1.1328z"/>
 </g>
</svg>
